<svg xmlns="http://www.w3.org/2000/svg" viewBox="0 0 512 512" width="512" height="512">
  <!-- Background circle -->
  <circle cx="256" cy="256" r="256" fill="#0f172a"/>

  <!-- Sun / glow -->
  <circle cx="256" cy="200" r="60" fill="#F59E0B" opacity="0.85"/>

  <!-- Palm trunk -->
  <path d="M248 320 Q240 370 235 420 Q248 415 260 415 Q258 370 264 320 Z" fill="#92400e"/>

  <!-- Left palm frond -->
  <path d="M248 320 Q210 290 170 260 Q185 275 200 295 Q215 305 248 320 Z" fill="#2DD4BF"/>
  <!-- Left frond highlight -->
  <path d="M248 320 Q210 290 170 260 Q175 270 190 285 Q210 300 248 320 Z" fill="#5eead4"/>

  <!-- Far-left palm frond -->
  <path d="M248 320 Q215 278 165 245 Q175 262 195 278 Q218 295 248 320 Z" fill="#14b8a6"/>

  <!-- Right palm frond -->
  <path d="M264 320 Q302 290 342 260 Q327 275 312 295 Q297 305 264 320 Z" fill="#2DD4BF"/>
  <!-- Right frond highlight -->
  <path d="M264 320 Q302 290 342 260 Q337 270 322 285 Q302 300 264 320 Z" fill="#5eead4"/>

  <!-- Far-right palm frond -->
  <path d="M264 320 Q297 278 347 245 Q337 262 317 278 Q294 295 264 320 Z" fill="#14b8a6"/>

  <!-- Top fronds -->
  <path d="M256 315 Q256 265 240 225 Q248 245 256 265 Q264 245 272 225 Q256 265 256 315 Z" fill="#2DD4BF"/>

  <!-- Water / oasis pool -->
  <ellipse cx="248" cy="430" rx="55" ry="12" fill="#2DD4BF" opacity="0.6"/>
  <ellipse cx="248" cy="430" rx="40" ry="7" fill="#7de8dd" opacity="0.4"/>

  <!-- Sand dune -->
  <path d="M160 460 Q248 435 340 460 Q340 480 160 480 Z" fill="#d97706" opacity="0.7"/>
</svg>
