<svg viewBox="0 0 600 610" xmlns="http://www.w3.org/2000/svg" style="background:#060d1a; border-radius:12px;">
  <defs>
    <filter id="glow" x="-30%" y="-30%" width="160%" height="160%">
      <feGaussianBlur stdDeviation="4" result="blur"/>
      <feMerge><feMergeNode in="blur"/><feMergeNode in="SourceGraphic"/></feMerge>
    </filter>
    <filter id="glow2" x="-50%" y="-50%" width="200%" height="200%">
      <feGaussianBlur stdDeviation="8" result="blur"/>
      <feMerge><feMergeNode in="blur"/><feMergeNode in="SourceGraphic"/></feMerge>
    </filter>
    <filter id="softglow" x="-20%" y="-20%" width="140%" height="140%">
      <feGaussianBlur stdDeviation="2.5" result="blur"/>
      <feMerge><feMergeNode in="blur"/><feMergeNode in="SourceGraphic"/></feMerge>
    </filter>
    <linearGradient id="ghostGrad" x1="0%" y1="0%" x2="100%" y2="100%">
      <stop offset="0%" stop-color="#00e5ff"/>
      <stop offset="100%" stop-color="#7c3aed"/>
    </linearGradient>
    <linearGradient id="ghostGradWarm" x1="0%" y1="0%" x2="100%" y2="100%">
      <stop offset="0%" stop-color="#00ffcc"/>
      <stop offset="100%" stop-color="#a855f7"/>
    </linearGradient>
    <linearGradient id="ghostGradCool" x1="0%" y1="0%" x2="100%" y2="100%">
      <stop offset="0%" stop-color="#38bdf8"/>
      <stop offset="100%" stop-color="#6d28d9"/>
    </linearGradient>
    <linearGradient id="bodyGrad" x1="30%" y1="0%" x2="70%" y2="100%">
      <stop offset="0%" stop-color="#0a1a30"/>
      <stop offset="100%" stop-color="#060d1a"/>
    </linearGradient>
    <linearGradient id="sandGrad" x1="0%" y1="0%" x2="0%" y2="100%">
      <stop offset="0%" stop-color="#1a3a5c"/>
      <stop offset="100%" stop-color="#060d1a"/>
    </linearGradient>
    <mask id="text-mask" maskUnits="userSpaceOnUse">
      <rect x="0" y="0" width="600" height="610" fill="white"/>
      <rect x="90" y="448" width="420" height="145" fill="black" rx="2"/>
    </mask>
  </defs>

  <!-- Blueprint grid -->
  <g stroke="#0a2a4a" stroke-width="0.5" opacity="0.7">
    <line x1="0" y1="60" x2="600" y2="60"/>
    <line x1="0" y1="120" x2="600" y2="120"/>
    <line x1="0" y1="180" x2="600" y2="180"/>
    <line x1="0" y1="240" x2="600" y2="240"/>
    <line x1="0" y1="300" x2="600" y2="300"/>
    <line x1="0" y1="360" x2="600" y2="360"/>
    <line x1="0" y1="420" x2="600" y2="420"/>
    <line x1="0" y1="480" x2="600" y2="480" mask="url(#text-mask)"/>
    <line x1="0" y1="540" x2="600" y2="540" mask="url(#text-mask)"/>
    <line x1="60" y1="0" x2="60" y2="610"/>
    <line x1="120" y1="0" x2="120" y2="610"/>
    <line x1="180" y1="0" x2="180" y2="610" mask="url(#text-mask)"/>
    <line x1="240" y1="0" x2="240" y2="610" mask="url(#text-mask)"/>
    <line x1="300" y1="0" x2="300" y2="610" mask="url(#text-mask)"/>
    <line x1="360" y1="0" x2="360" y2="610" mask="url(#text-mask)"/>
    <line x1="420" y1="0" x2="420" y2="610" mask="url(#text-mask)"/>
    <line x1="480" y1="0" x2="480" y2="610"/>
    <line x1="540" y1="0" x2="540" y2="610"/>
  </g>
  <rect x="20" y="20" width="560" height="560" fill="none" stroke="#0d4a6a" stroke-width="1.2"/>
  <g stroke="#00b4cc" stroke-width="0.8" opacity="0.6">
    <line x1="55" y1="40" x2="55" y2="100"/>
    <line x1="35" y1="70" x2="75" y2="70"/>
  </g>
  <g stroke="#00b4cc" stroke-width="0.8" opacity="0.5" fill="none">
    <path d="M480,50 A80,80 0 0,1 560,130"/>
    <path d="M500,50 A60,60 0 0,1 560,110"/>
  </g>
  <circle cx="520" cy="340" r="8" fill="none" stroke="#00b4cc" stroke-width="0.8" opacity="0.5"/>
  <circle cx="520" cy="340" r="2" fill="#00b4cc" opacity="0.4"/>

  <!-- Ground -->
  <ellipse cx="300" cy="435" rx="250" ry="18" fill="url(#sandGrad)" stroke="#00e5ff" stroke-width="0.8" opacity="0.35"/>

  <!-- ===== PALM TREE ===== -->
  <path d="M295,435 C292,400 286,360 282,318 C279,288 283,262 290,242" fill="none" stroke="#00c4a0" stroke-width="9" stroke-linecap="round" opacity="0.9" filter="url(#glow)"/>
  <path d="M293,420 Q287,418 288,413" fill="none" stroke="#007799" stroke-width="2.5" opacity="0.5" stroke-linecap="round"/>
  <path d="M290,402 Q285,400 286,395" fill="none" stroke="#007799" stroke-width="2.5" opacity="0.5" stroke-linecap="round"/>
  <path d="M288,383 Q283,381 284,376" fill="none" stroke="#007799" stroke-width="2.5" opacity="0.5" stroke-linecap="round"/>
  <path d="M290,242 C308,205 352,190 380,198" fill="none" stroke="#00c4a0" stroke-width="6" stroke-linecap="round" filter="url(#glow)"/>
  <path d="M290,242 C268,205 222,194 196,204" fill="none" stroke="#00c4a0" stroke-width="6" stroke-linecap="round" filter="url(#glow)"/>
  <path d="M290,242 C328,232 374,245 396,266" fill="none" stroke="#00c4a0" stroke-width="4.5" stroke-linecap="round" filter="url(#glow)" opacity="0.85"/>
  <path d="M290,242 C256,234 210,250 190,274" fill="none" stroke="#00c4a0" stroke-width="4.5" stroke-linecap="round" filter="url(#glow)" opacity="0.85"/>
  <path d="M290,242 C286,214 282,192 279,170" fill="none" stroke="#00c4a0" stroke-width="4" stroke-linecap="round" filter="url(#glow)" opacity="0.8"/>
  <path d="M290,242 C318,224 358,212 376,218" fill="none" stroke="#00c4a0" stroke-width="3.5" stroke-linecap="round" filter="url(#glow)" opacity="0.7"/>
  <circle cx="293" cy="250" r="7" fill="#7c3aed" stroke="#00e5ff" stroke-width="1.2" filter="url(#glow)"/>
  <circle cx="283" cy="246" r="6" fill="#5a20aa" stroke="#00e5ff" stroke-width="1" filter="url(#glow)"/>
  <circle cx="300" cy="246" r="5" fill="#6030bb" stroke="#00e5ff" stroke-width="1" filter="url(#glow)"/>

  <!-- ================================================================
    GHOST LEFT — "The Drowsy One"
    Classic round ghost silhouette, droopy half-lidded eye,
    a robotic HUD visor line etched across the face,
    bolt rivets on the side, slack wiggly hem, holding a drink.
  ================================================================ -->
  <!-- Chair left -->
  <g filter="url(#glow)" opacity="0.92">
    <line x1="65"  y1="430" x2="57"  y2="441" stroke="#00e5ff" stroke-width="2.2" stroke-linecap="round"/>
    <line x1="158" y1="430" x2="166" y2="441" stroke="#00e5ff" stroke-width="2.2" stroke-linecap="round"/>
    <rect x="60" y="418" width="103" height="11" rx="3" fill="url(#bodyGrad)" stroke="#00e5ff" stroke-width="1.5"/>
    <line x1="82"  y1="418" x2="82"  y2="429" stroke="#00e5ff" stroke-width="0.9" opacity="0.45"/>
    <line x1="103" y1="418" x2="103" y2="429" stroke="#00e5ff" stroke-width="0.9" opacity="0.45"/>
    <line x1="124" y1="418" x2="124" y2="429" stroke="#00e5ff" stroke-width="0.9" opacity="0.45"/>
    <line x1="145" y1="418" x2="145" y2="429" stroke="#00e5ff" stroke-width="0.9" opacity="0.45"/>
    <rect x="62" y="342" width="98" height="80" rx="4" fill="url(#bodyGrad)" stroke="#7c3aed" stroke-width="1.5" transform="rotate(-20,111,382)"/>
    <line x1="61"  y1="418" x2="47"  y2="396" stroke="#00e5ff" stroke-width="2" stroke-linecap="round"/>
    <line x1="161" y1="418" x2="175" y2="396" stroke="#00e5ff" stroke-width="2" stroke-linecap="round"/>
  </g>

  <!-- Ghost body — wide, round, very classic ghost shape -->
  <path d="M73,422
    C70,394 70,366 74,341
    C79,311 94,288 113,281
    C132,288 147,311 152,341
    C156,366 156,394 153,422
    C147,430 139,434 130,435
    C121,436 112,433 104,430
    C95,427 80,424 73,422 Z"
    fill="url(#bodyGrad)" stroke="url(#ghostGrad)" stroke-width="2.3" filter="url(#glow)"/>
  <!-- Ghost hem — loose, slouchy waves -->
  <path d="M73,422 C78,431 84,424 90,430 C96,436 104,428 113,432 C122,436 129,428 136,431 C142,434 148,428 153,422"
    fill="url(#bodyGrad)" stroke="url(#ghostGrad)" stroke-width="2" filter="url(#glow)"/>

  <!-- Robotic panel seam lines on body -->
  <line x1="113" y1="363" x2="113" y2="420" stroke="#00b4cc" stroke-width="0.7" opacity="0.3" stroke-dasharray="3,4"/>
  <line x1="88"  y1="375" x2="138" y2="375" stroke="#00b4cc" stroke-width="0.7" opacity="0.3" stroke-dasharray="3,4"/>
  <!-- Rivet bolts -->
  <circle cx="88"  cy="370" r="2.5" fill="#040e1a" stroke="#00b4cc" stroke-width="1" opacity="0.7"/>
  <circle cx="138" cy="370" r="2.5" fill="#040e1a" stroke="#00b4cc" stroke-width="1" opacity="0.7"/>

  <!-- Eye socket — inset panel look -->
  <ellipse cx="113" cy="322" rx="26" ry="26" fill="#040e1a" stroke="#00d4ee" stroke-width="1.4" opacity="0.8"/>
  <!-- Iris -->
  <circle cx="113" cy="322" r="15" fill="#061220" stroke="#00e5ff" stroke-width="1.8" filter="url(#glow2)"/>
  <!-- Pupil glow -->
  <circle cx="113" cy="322" r="7"  fill="#00e5ff" opacity="0.9" filter="url(#glow2)"/>
  <circle cx="109" cy="318" r="2.8" fill="white" opacity="0.85"/>
  <!-- Droopy eyelid — heavy, half-closed -->
  <path d="M87,314 Q113,300 139,314 L139,322 Q113,310 87,322 Z"
    fill="#060d1a" stroke="url(#ghostGrad)" stroke-width="1.4" filter="url(#softglow)"/>
  <!-- HUD scan line etched across face below eye -->
  <line x1="90" y1="346" x2="136" y2="346" stroke="#00e5ff" stroke-width="0.9" opacity="0.45" stroke-dasharray="4,3"/>

  <!-- Mouth — robot grille, slightly drooping at corners (tired) -->
  <path d="M96,356 Q113,360 130,356" fill="none" stroke="#00b4cc" stroke-width="1" opacity="0.4"/>
  <rect x="96" y="354" width="34" height="8" rx="3" fill="#040e1a" stroke="#00b4cc" stroke-width="1.2" opacity="0.9"/>
  <line x1="103" y1="354" x2="103" y2="362" stroke="#00b4cc" stroke-width="0.9" opacity="0.5"/>
  <line x1="110" y1="354" x2="110" y2="362" stroke="#00b4cc" stroke-width="0.9" opacity="0.5"/>
  <line x1="117" y1="354" x2="117" y2="362" stroke="#00b4cc" stroke-width="0.9" opacity="0.5"/>
  <line x1="124" y1="354" x2="124" y2="362" stroke="#00b4cc" stroke-width="0.9" opacity="0.5"/>

  <!-- Left tendril — drooping, holding drink -->
  <path d="M73,398 C59,397 45,401 38,410" fill="none" stroke="url(#ghostGrad)" stroke-width="3" stroke-linecap="round" filter="url(#glow)"/>
  <!-- Cup -->
  <path d="M34,408 L30,422 L48,422 L44,408 Z" fill="url(#bodyGrad)" stroke="#00e5ff" stroke-width="1.3" filter="url(#glow)"/>
  <path d="M33,415 L31,422 L47,422 L45,415 Z" fill="#00e5ff" opacity="0.12"/>
  <!-- Straw -->
  <line x1="38" y1="406" x2="34" y2="395" stroke="#a855f7" stroke-width="1.8" stroke-linecap="round" filter="url(#softglow)"/>
  <!-- Tiny umbrella -->
  <path d="M32,395 Q34,389 36,395" fill="#00e5ff" opacity="0.65" stroke="#00e5ff" stroke-width="0.5"/>
  <line x1="34" y1="395" x2="34" y2="388" stroke="#00e5ff" stroke-width="0.9" stroke-linecap="round"/>
  <!-- Right tendril — resting limp on armrest -->
  <path d="M153,398 C165,397 176,400 182,407" fill="none" stroke="url(#ghostGrad)" stroke-width="2.3" stroke-linecap="round" filter="url(#glow)" opacity="0.6"/>


  <!-- ================================================================
    GHOST CENTER — "The Watchful One"
    Taller ghost, fully upright. Two bright glowing eyes (binocular
    robot camera lenses side by side). Flat angular jaw panel.
    Exposed circuit-trace lines on chest. Tendrils neatly at sides.
  ================================================================ -->
  <!-- Chair center -->
  <g filter="url(#glow)" opacity="0.92">
    <line x1="235" y1="430" x2="227" y2="441" stroke="#00e5ff" stroke-width="2.2" stroke-linecap="round"/>
    <line x1="353" y1="430" x2="361" y2="441" stroke="#00e5ff" stroke-width="2.2" stroke-linecap="round"/>
    <rect x="230" y="418" width="128" height="11" rx="3" fill="url(#bodyGrad)" stroke="#00e5ff" stroke-width="1.5"/>
    <line x1="254" y1="418" x2="254" y2="429" stroke="#00e5ff" stroke-width="0.9" opacity="0.45"/>
    <line x1="276" y1="418" x2="276" y2="429" stroke="#00e5ff" stroke-width="0.9" opacity="0.45"/>
    <line x1="299" y1="418" x2="299" y2="429" stroke="#00e5ff" stroke-width="0.9" opacity="0.45"/>
    <line x1="322" y1="418" x2="322" y2="429" stroke="#00e5ff" stroke-width="0.9" opacity="0.45"/>
    <!-- Upright backrest -->
    <rect x="232" y="350" width="124" height="71" rx="4" fill="url(#bodyGrad)" stroke="#7c3aed" stroke-width="1.5" transform="rotate(-4,294,385)"/>
    <line x1="231" y1="418" x2="219" y2="400" stroke="#00e5ff" stroke-width="2" stroke-linecap="round"/>
    <line x1="355" y1="418" x2="367" y2="400" stroke="#00e5ff" stroke-width="2" stroke-linecap="round"/>
  </g>

  <!-- Ghost body — tall, slightly angular at top (squarish head-ish) -->
  <path d="M255,422
    C252,393 251,362 255,336
    C260,304 274,281 294,273
    C314,281 328,304 333,336
    C337,362 336,393 333,422
    C326,430 317,434 309,435
    C301,436 293,433 285,430
    C274,427 259,424 255,422 Z"
    fill="url(#bodyGrad)" stroke="url(#ghostGradWarm)" stroke-width="2.4" filter="url(#glow)"/>
  <!-- Hem — tighter, more orderly waves -->
  <path d="M255,422 C260,428 266,423 272,427 C278,431 285,424 292,427 C299,430 305,424 311,426 C317,428 322,423 327,426 C330,428 332,424 333,422"
    fill="url(#bodyGrad)" stroke="url(#ghostGradWarm)" stroke-width="1.9" filter="url(#glow)"/>

  <!-- Circuit traces on chest — robotic detail -->
  <g stroke="#00ffcc" stroke-width="0.8" opacity="0.35" fill="none">
    <path d="M278,380 L278,370 L286,370 L286,365"/>
    <path d="M310,380 L310,370 L302,370 L302,365"/>
    <path d="M278,390 L294,390 L294,380"/>
    <circle cx="286" cy="364" r="2" fill="#00ffcc" opacity="0.5" stroke="none"/>
    <circle cx="302" cy="364" r="2" fill="#00ffcc" opacity="0.5" stroke="none"/>
  </g>

  <!-- DUAL CAMERA EYES — binocular robot look -->
  <!-- Left eye socket -->
  <rect x="270" y="305" width="22" height="22" rx="11" fill="#040e1a" stroke="#00ffcc" stroke-width="1.4" opacity="0.85"/>
  <circle cx="281" cy="316" r="9" fill="#061220" stroke="#00ffcc" stroke-width="1.6" filter="url(#glow2)"/>
  <circle cx="281" cy="316" r="4" fill="#00ffcc" opacity="0.9" filter="url(#glow2)"/>
  <circle cx="278" cy="313" r="1.8" fill="white" opacity="0.85"/>
  <!-- Right eye socket -->
  <rect x="297" y="305" width="22" height="22" rx="11" fill="#040e1a" stroke="#00ffcc" stroke-width="1.4" opacity="0.85"/>
  <circle cx="308" cy="316" r="9" fill="#061220" stroke="#00ffcc" stroke-width="1.6" filter="url(#glow2)"/>
  <circle cx="308" cy="316" r="4" fill="#00ffcc" opacity="0.9" filter="url(#glow2)"/>
  <circle cx="305" cy="313" r="1.8" fill="white" opacity="0.85"/>
  <!-- Bridge between eyes — robot nose piece -->
  <rect x="291" y="312" width="7" height="4" rx="1" fill="#040e1a" stroke="#00ffcc" stroke-width="0.8" opacity="0.6"/>

  <!-- Jaw panel — angular flat plate -->
  <rect x="276" y="334" width="36" height="14" rx="2" fill="#040e1a" stroke="#00b4cc" stroke-width="1.3" opacity="0.9"/>
  <!-- Grille slots -->
  <line x1="283" y1="334" x2="283" y2="348" stroke="#00b4cc" stroke-width="0.9" opacity="0.55"/>
  <line x1="290" y1="334" x2="290" y2="348" stroke="#00b4cc" stroke-width="0.9" opacity="0.55"/>
  <line x1="297" y1="334" x2="297" y2="348" stroke="#00b4cc" stroke-width="0.9" opacity="0.55"/>
  <line x1="304" y1="334" x2="304" y2="348" stroke="#00b4cc" stroke-width="0.9" opacity="0.55"/>
  <!-- Panel corner screws -->
  <circle cx="278" cy="336" r="1.5" fill="none" stroke="#00b4cc" stroke-width="0.8" opacity="0.6"/>
  <circle cx="310" cy="336" r="1.5" fill="none" stroke="#00b4cc" stroke-width="0.8" opacity="0.6"/>
  <circle cx="278" cy="346" r="1.5" fill="none" stroke="#00b4cc" stroke-width="0.8" opacity="0.6"/>
  <circle cx="310" cy="346" r="1.5" fill="none" stroke="#00b4cc" stroke-width="0.8" opacity="0.6"/>

  <!-- Tendrils — neatly at sides, attentive -->
  <path d="M255,395 C240,392 226,396 219,405" fill="none" stroke="url(#ghostGradWarm)" stroke-width="2.8" stroke-linecap="round" filter="url(#glow)"/>
  <path d="M333,395 C348,392 362,396 369,405" fill="none" stroke="url(#ghostGradWarm)" stroke-width="2.8" stroke-linecap="round" filter="url(#glow)"/>


  <!-- ================================================================
    GHOST RIGHT — "The Smug One"
    Classic ghost silhouette but leaning slightly. Single eye with
    a cool half-visor (mechanical shutter slat) and a smirk grille.
    One tendril raised casually, one resting. Riveted chest plate.
  ================================================================ -->
  <!-- Chair right -->
  <g filter="url(#glow)" opacity="0.92">
    <line x1="428" y1="430" x2="420" y2="441" stroke="#00e5ff" stroke-width="2.2" stroke-linecap="round"/>
    <line x1="526" y1="430" x2="534" y2="441" stroke="#00e5ff" stroke-width="2.2" stroke-linecap="round"/>
    <rect x="423" y="418" width="107" height="11" rx="3" fill="url(#bodyGrad)" stroke="#00e5ff" stroke-width="1.5"/>
    <line x1="445" y1="418" x2="445" y2="429" stroke="#00e5ff" stroke-width="0.9" opacity="0.45"/>
    <line x1="465" y1="418" x2="465" y2="429" stroke="#00e5ff" stroke-width="0.9" opacity="0.45"/>
    <line x1="486" y1="418" x2="486" y2="429" stroke="#00e5ff" stroke-width="0.9" opacity="0.45"/>
    <line x1="507" y1="418" x2="507" y2="429" stroke="#00e5ff" stroke-width="0.9" opacity="0.45"/>
    <!-- Medium recline -->
    <rect x="425" y="348" width="103" height="74" rx="4" fill="url(#bodyGrad)" stroke="#7c3aed" stroke-width="1.5" transform="rotate(-13,476,385)"/>
    <line x1="424" y1="418" x2="411" y2="397" stroke="#00e5ff" stroke-width="2" stroke-linecap="round"/>
    <line x1="529" y1="418" x2="542" y2="397" stroke="#00e5ff" stroke-width="2" stroke-linecap="round"/>
  </g>

  <!-- Ghost body — classic round but leaning slightly right -->
  <path d="M436,422
    C433,394 432,366 436,342
    C441,312 456,290 475,283
    C494,290 508,312 512,342
    C516,366 515,394 512,422
    C506,430 498,434 490,435
    C482,436 474,433 466,430
    C456,427 440,424 436,422 Z"
    fill="url(#bodyGrad)" stroke="url(#ghostGradCool)" stroke-width="2.3" filter="url(#glow)"/>
  <!-- Hem — asymmetric, slightly lopsided (cocky) -->
  <path d="M436,422 C441,429 447,423 453,428 C459,433 466,425 473,428 C480,431 486,425 492,428 C497,431 503,425 508,427 C511,429 512,425 512,422"
    fill="url(#bodyGrad)" stroke="url(#ghostGradCool)" stroke-width="2" filter="url(#glow)"/>

  <!-- Chest plate — a single rectangular armour panel -->
  <rect x="460" y="360" width="30" height="38" rx="3" fill="#040e1a" stroke="#38bdf8" stroke-width="1.1" opacity="0.75"/>
  <!-- Chest LED indicator row -->
  <circle cx="466" cy="368" r="2" fill="#00e5ff" opacity="0.9" filter="url(#softglow)"/>
  <circle cx="475" cy="368" r="2" fill="#a855f7" opacity="0.9" filter="url(#softglow)"/>
  <circle cx="484" cy="368" r="2" fill="#00e5ff" opacity="0.5"/>
  <!-- Chest plate vent -->
  <line x1="463" y1="376" x2="487" y2="376" stroke="#38bdf8" stroke-width="0.9" opacity="0.45"/>
  <line x1="463" y1="381" x2="487" y2="381" stroke="#38bdf8" stroke-width="0.9" opacity="0.45"/>
  <line x1="463" y1="386" x2="487" y2="386" stroke="#38bdf8" stroke-width="0.9" opacity="0.45"/>

  <!-- Eye — single large, half-mechanical shutter slat across top -->
  <circle cx="475" cy="320" r="25" fill="#040e1a" stroke="#38bdf8" stroke-width="1.3" opacity="0.8"/>
  <circle cx="475" cy="320" r="15" fill="#061220" stroke="#38bdf8" stroke-width="1.8" filter="url(#glow2)"/>
  <circle cx="475" cy="320" r="7"  fill="#38bdf8" opacity="0.9" filter="url(#glow2)"/>
  <circle cx="471" cy="316" r="2.8" fill="white" opacity="0.85"/>
  <!-- Mechanical shutter — horizontal slats covering top half of eye (squinting smugly) -->
  <clipPath id="eyeclip">
    <circle cx="475" cy="320" r="25"/>
  </clipPath>
  <g clip-path="url(#eyeclip)">
    <rect x="450" y="295" width="50" height="7"  rx="1" fill="#0d2040" stroke="#38bdf8" stroke-width="0.7" opacity="0.9"/>
    <rect x="450" y="303" width="50" height="6"  rx="1" fill="#0d2040" stroke="#38bdf8" stroke-width="0.7" opacity="0.75"/>
    <rect x="450" y="310" width="50" height="5"  rx="1" fill="#0d2040" stroke="#38bdf8" stroke-width="0.7" opacity="0.55"/>
  </g>

  <!-- Smirk grille — offset to the right, asymmetric -->
  <rect x="462" y="348" width="30" height="8" rx="3" fill="#040e1a" stroke="#00b4cc" stroke-width="1.2" opacity="0.9"/>
  <line x1="469" y1="348" x2="469" y2="356" stroke="#00b4cc" stroke-width="0.9" opacity="0.5"/>
  <line x1="476" y1="348" x2="476" y2="356" stroke="#00b4cc" stroke-width="0.9" opacity="0.5"/>
  <line x1="483" y1="348" x2="483" y2="356" stroke="#00b4cc" stroke-width="0.9" opacity="0.5"/>
  <!-- Smirk curve below — right side lifted -->
  <path d="M462,357 Q472,363 492,358" fill="none" stroke="#38bdf8" stroke-width="1.3" stroke-linecap="round" filter="url(#softglow)" opacity="0.65"/>

  <!-- Left tendril — resting low on armrest -->
  <path d="M436,398 C422,396 408,400 401,408" fill="none" stroke="url(#ghostGradCool)" stroke-width="2.3" stroke-linecap="round" filter="url(#glow)" opacity="0.6"/>
  <!-- Right tendril — raised casually, tip curled back -->
  <path d="M512,392 C526,383 540,373 548,363" fill="none" stroke="url(#ghostGradCool)" stroke-width="3" stroke-linecap="round" filter="url(#glow)"/>
  <path d="M548,363 C553,358 555,353 551,349 C547,345 542,348 543,353" fill="none" stroke="url(#ghostGradCool)" stroke-width="2.2" stroke-linecap="round" filter="url(#glow)"/>

  <!-- Ambient sparkles -->
  <circle cx="185" cy="296" r="1.5" fill="#00e5ff" opacity="0.5"/>
  <circle cx="165" cy="245" r="1.2" fill="#7c3aed" opacity="0.5" filter="url(#glow)"/>
  <circle cx="355" cy="208" r="1.2" fill="#00e5ff" opacity="0.4"/>
  <circle cx="540" cy="285" r="1.5" fill="#38bdf8" opacity="0.4"/>
  <circle cx="420" cy="260" r="1"   fill="#ffffff"  opacity="0.3"/>

  <!-- Separator -->
  <line x1="80" y1="463" x2="520" y2="463" stroke="#5a20aa" stroke-width="1" opacity="0.7" mask="url(#text-mask)"/>

  <!-- OaSis — outline only -->
  <text x="300" y="548" text-anchor="middle"
    font-family="Arial Black, Impact, sans-serif"
    font-size="90" font-weight="900" letter-spacing="8"
    fill="none" stroke="#3a0a88" stroke-width="8" opacity="0.65">OaSis</text>
  <text x="300" y="548" text-anchor="middle"
    font-family="Arial Black, Impact, sans-serif"
    font-size="90" font-weight="900" letter-spacing="8"
    fill="none" stroke="#00e5ff" stroke-width="2.5" filter="url(#glow)">OaSis</text>
  <text x="300" y="548" text-anchor="middle"
    font-family="Arial Black, Impact, sans-serif"
    font-size="90" font-weight="900" letter-spacing="8"
    fill="none" stroke="#9b5de5" stroke-width="1">OaSis</text>
</svg>
